# xmcd
#
# Track frame offsets: 
#        150
#        26362
#        40117
#        53512
#        68047
#        89245
#        102577
#        120187
#        131055
#        155437
#        164557
#        181237
#        192110
#        207827
#        220610
#        233097
#
# Disc length: 3369 seconds
#
# Revision: 0
# Processed by: cddbd v1.5.2PL0 Copyright (c) Steve Scherf et al.
# Submitted via: ExactAudioCopy v0.95b3
#
DISCID=d40d2710
DTITLE=Sly and The Family Stone  - Fresh (2007 Remaster)  FLAC
DYEAR=1900
DGENRE=
TTITLE0=In Time
TTITLE1=If You Want Me To Stay
TTITLE2=Let Me Have It All
TTITLE3=Frisky
TTITLE4=Thankful N' Thoughtful
TTITLE5=Skin I'm In
TTITLE6=I Don't Know (Satisfaction)
TTITLE7=Keep On Dancin'
TTITLE8=Que Sera, Sera (Whatever Will Be, Will Be)
TTITLE9=If It Were Left Up To Me
TTITLE10=Babies Makin' Babies
TTITLE11=Let Me Have It
TTITLE12=Frisky
TTITLE13=Skin I'm In
TTITLE14=Keep On Dancin'
TTITLE15=Babies Makin' Babies
EXTD=
EXTT0=
EXTT1=
EXTT2=
EXTT3=
EXTT4=
EXTT5=
EXTT6=
EXTT7=
EXTT8=
EXTT9=
EXTT10=
EXTT11=
EXTT12=
EXTT13=
EXTT14=
EXTT15=
PLAYORDER=
